<svg xmlns="http://www.w3.org/2000/svg" data-name="Layer 1" width="807.6424" height="701.91162" viewBox="0 0 807.6424 701.91162" xmlns:xlink="http://www.w3.org/1999/xlink"><path d="M676.798,799.95708H662.03821a7.00787,7.00787,0,0,1-7-7V669.94292a7.00787,7.00787,0,0,1,7-7H676.798a7.00787,7.00787,0,0,1,7,7V792.95708A7.00787,7.00787,0,0,1,676.798,799.95708Z" transform="translate(-196.1788 -99.04419)" fill="#ffeaeb"/><path d="M645.6056,799.95708H630.84607a7.00787,7.00787,0,0,1-7-7V669.94292a7.00787,7.00787,0,0,1,7-7H645.6056a7.00787,7.00787,0,0,1,7,7V792.95708A7.00787,7.00787,0,0,1,645.6056,799.95708Z" transform="translate(-196.1788 -99.04419)" fill="#ffeaeb"/><path d="M686.70567,230.26653s6.84838-14.48907-4.21835-18.25619-10.2707,11.40779-10.2707,11.40779l13.462,7.98918" transform="translate(-196.1788 -99.04419)" fill="#3f3d56"/><path d="M454.16915,272.8972l-22.93674,18.59365s344.09481,115.64129,383.34,138.58172l-3.87352-32.40414-32.51049-39.59734-62.97416-40.17324L613.55975,286.27492,502.779,246.43546Z" transform="translate(-196.1788 -99.04419)" fill="#ffeaeb"/><path d="M629.41332,319.13755,551.5648,513.43023s-12.44227,32.173,15.0539,38.33914c16.53169,3.70728,25.27069-6.32115,29.61152-14.90857,4.63649-9.17235-7.94938-17.23805-14.2396-9.11016q-.15319.19785-.307.40342c-.15376.20552-16.64748,13.00388-16.63786-4.51185a30.67974,30.67974,0,0,1,2.46411-11.74264l76.50617-183.74574Z" transform="translate(-196.1788 -99.04419)" fill="#3f3d56"/><path d="M537.45738,285.91905" transform="translate(-196.1788 -99.04419)" opacity="0.1" style="isolation:isolate"/><path d="M741.22112,357.83627" transform="translate(-196.1788 -99.04419)" opacity="0.1" style="isolation:isolate"/><path d="M678.80412,222.02016s-21.906-3.19862-34.22716-10.1607c0,0-135.19936-28.77646-213.26059,78.57455,0,0,367.49,85.06751,383.34,138.58169,0,0,23.06518-99.03176-99.116-190.44493C715.54029,238.57072,685.64882,228.18258,678.80412,222.02016Z" transform="translate(-196.1788 -99.04419)" fill="#3f3d56"/><circle cx="467.90102" cy="378.15166" r="51" fill="#ffeaeb"/><path d="M623.04187,498.605c-3.30639-.09228-7.42138-.208-10.5896-2.52246a8.13346,8.13346,0,0,1-3.20019-6.07324,5.47053,5.47053,0,0,1,1.8606-4.49219c1.65527-1.39941,4.073-1.72754,6.678-.96143l-2.699-19.72607,1.98144-.27148,3.1731,23.19043-1.65454-.75928c-1.91821-.8794-4.551-1.32715-6.188.05517a3.51383,3.51383,0,0,0-1.15283,2.89453,6.14689,6.14689,0,0,0,2.3811,4.52833c2.46558,1.80175,5.74561,2.03417,9.46607,2.13867Z" transform="translate(-196.1788 -99.04419)" fill="#2f2e41"/><rect x="432.34208" y="367.48662" width="10.77148" height="2" fill="#2f2e41"/><path d="M667.64793,426.045a42.16089,42.16089,0,0,1,16.48679-30.88561,41.06466,41.06466,0,0,1,35.01478-6.678A40.44121,40.44121,0,0,1,746.032,411.41995a42.10754,42.10754,0,0,1,3.61014,17.69246,47.83336,47.83336,0,0,1-4.83069,19.06711c-3.00716,6.55216-6.8,12.69925-10.094,19.10425a152.46028,152.46028,0,0,0-8.37723,19.557,154.17895,154.17895,0,0,0-8.32173,42.37385c-1.22412,22.77069.95445,56.01429,26.66,64.753,6.53681,2.22223,13.58849,2.636,20.442,2.61783a83.952,83.952,0,0,0,21.42038-2.509c12.13545-3.24045,23.65553-10.84962,28.82639-22.67174a31.55294,31.55294,0,0,0,2.373-8.56911c.10763-.80991-.7666-1.49235-1.5-1.5a1.53686,1.53686,0,0,0-1.5,1.5c-1.67411,12.59789-12.17164,22.25885-23.56928,26.60212a67.697,67.697,0,0,1-20.73581,4.01122c-7.04626.356-14.36228.30089-21.26181-1.32054a30.7922,30.7922,0,0,1-16.01386-9.1029,41.40161,41.40161,0,0,1-8.35941-15.12233c-4.05744-12.38511-4.48264-26.00217-3.76968-38.91066a151.26213,151.26213,0,0,1,8.49775-42.19341,147.93246,147.93246,0,0,1,8.80388-19.95791c3.34244-6.28625,7.05366-12.39482,9.86985-18.94722a49.44352,49.44352,0,0,0,4.44457-19.15341,45.24383,45.24383,0,0,0-3.5757-17.79309,43.37046,43.37046,0,0,0-25.81022-24.36088,44.64077,44.64077,0,0,0-36.0158,2.95013,45.38508,45.38508,0,0,0-21.25517,27.7329,43.42418,43.42418,0,0,0-1.3417,8.77531c-.09889,1.92955,2.90139,1.92422,3,0Z" transform="translate(-196.1788 -99.04419)" fill="#2f2e41"/><path d="M677.62119,427.09819a23.48752,23.48752,0,0,1,7.85694-14.33284,23.16913,23.16913,0,0,1,16.195-5.37552c1.92969.09652,1.92457-2.90373,0-3a26.1035,26.1035,0,0,0-26.94473,21.91084c-.28827,1.88869,2.602,2.70292,2.89283.79752Z" transform="translate(-196.1788 -99.04419)" fill="#2f2e41"/><path d="M664.07981,418.19585h15a5,5,0,0,1,5,5v0a5,5,0,0,1-5,5h-15a5,5,0,0,1-5-5v0a5,5,0,0,1,5-5Z" transform="translate(980.4327 936.57078) rotate(-161.72778)" fill="#2f2e41"/><path d="M700.21985,714.38823H606.4303a6.50736,6.50736,0,0,1-6.5-6.5V693.129a6.50736,6.50736,0,0,1,6.5-6.5h93.78955a6.50736,6.50736,0,0,1,6.5,6.5v14.75927A6.50736,6.50736,0,0,1,700.21985,714.38823Z" transform="translate(-196.1788 -99.04419)" fill="#ccc"/><path d="M720.20057,692.04888c-.04688,0-.09351-.00049-.14038-.00147l-131.15186-2.76123a6.5,6.5,0,0,1-6.19995-7.9458l31.93237-139.80029a6.46719,6.46719,0,0,1,6.33667-5.05274h21.376A65.89238,65.89238,0,0,1,706.57532,588.667l19.98413,95.55078a6.50038,6.50038,0,0,1-6.35888,7.83106Z" transform="translate(-196.1788 -99.04419)" fill="#2f2e41"/><path d="M635.94056,612.95708a6.47993,6.47993,0,0,1-4.5669-1.87158L543.84778,524.646a6.49984,6.49984,0,0,1-.05737-9.19239l10.37109-10.502a6.50041,6.50041,0,0,1,9.19214-.05713l87.52588,86.439a6.50815,6.50815,0,0,1,.05737,9.19287L640.5658,611.02788A6.48152,6.48152,0,0,1,635.94056,612.95708Z" transform="translate(-196.1788 -99.04419)" fill="#ffeaeb"/><path d="M631.89384,615.5754l-38.48668-37.55346a6.52535,6.52535,0,0,1-.324-9.001L609.28257,550.762a6.52535,6.52535,0,0,1,10.07623.382l41.18057,41.96982a6.53721,6.53721,0,0,1-.48446,9.21389l-18.93735,13.73618A6.537,6.537,0,0,1,631.89384,615.5754Z" transform="translate(-196.1788 -99.04419)" fill="#2f2e41"/></svg>