<svg width="24" height="23" viewBox="0 0 24 23" fill="none" xmlns="http://www.w3.org/2000/svg">
<path d="M5.5 4.67188C5.5 4.27477 5.9475 3.95312 6.5 3.95312H9.5C10.05 3.95312 10.5 4.27477 10.5 4.67188V6.82812C10.5 7.22344 10.05 7.54688 9.5 7.54688H6.5C5.9475 7.54688 5.5 7.22344 5.5 6.82812V4.67188ZM17.5 3.95312C18.05 3.95312 18.5 4.27477 18.5 4.67188V6.82812C18.5 7.22344 18.05 7.54688 17.5 7.54688H14.5C13.95 7.54688 13.5 7.22344 13.5 6.82812V4.67188C13.5 4.27477 13.95 3.95312 14.5 3.95312H17.5ZM5.5 10.4219C5.5 10.0266 5.9475 9.70312 6.5 9.70312H9.5C10.05 9.70312 10.5 10.0266 10.5 10.4219V12.5781C10.5 12.9734 10.05 13.2969 9.5 13.2969H6.5C5.9475 13.2969 5.5 12.9734 5.5 12.5781V10.4219ZM17.5 9.70312C18.05 9.70312 18.5 10.0266 18.5 10.4219V12.5781C18.5 12.9734 18.05 13.2969 17.5 13.2969H14.5C13.95 13.2969 13.5 12.9734 13.5 12.5781V10.4219C13.5 10.0266 13.95 9.70312 14.5 9.70312H17.5ZM0 2.875C0 1.28701 1.79063 0 4 0H20C22.2062 0 24 1.28701 24 2.875V20.125C24 21.7107 22.2062 23 20 23H4C1.79063 23 0 21.7107 0 20.125V2.875ZM3 2.875V20.125C3 20.5203 3.4475 20.8438 4 20.8438H9V17.9688C9 16.7783 10.3438 15.8125 12 15.8125C13.6562 15.8125 15 16.7783 15 17.9688V20.8438H20C20.55 20.8438 21 20.5203 21 20.125V2.875C21 2.47789 20.55 2.15625 20 2.15625H4C3.4475 2.15625 3 2.47789 3 2.875Z" fill="#503535"/>
</svg>
