<svg width="24" height="20" viewBox="0 0 24 20" fill="none" xmlns="http://www.w3.org/2000/svg">
<path d="M23.5591 15.6665L18.0827 11.5171C17.8238 11.321 17.4836 11.2165 17.134 11.2255C16.7843 11.2345 16.4526 11.3564 16.2087 11.5654L12.9848 14.3283C12.2088 14.2048 10.6488 13.7995 9.04288 12.4646C7.437 11.1253 6.95066 9.82189 6.8065 9.17972L10.1193 6.49205C10.3704 6.28899 10.5169 6.01247 10.5277 5.72101C10.5385 5.42955 10.4128 5.14601 10.1772 4.93042L5.19928 0.36789C4.96357 0.151615 4.63598 0.0204285 4.28607 0.00219121C3.93617 -0.0160461 3.59151 0.0801028 3.3253 0.270218L0.40185 2.3595C0.168931 2.5543 0.0299102 2.81357 0.0111576 3.08812C-0.00905064 3.36878 -0.394354 10.0172 5.79205 15.1748C11.189 19.6711 17.9493 20 19.8112 20C20.0833 20 20.2503 19.9933 20.2948 19.991C20.6242 19.9757 20.9352 19.8593 21.1678 19.6643L23.6736 17.227C23.9027 17.0059 24.0189 16.7189 23.9975 16.4273C23.9761 16.1358 23.8188 15.8627 23.5591 15.6665Z" fill="#503535"/>
</svg>
