<svg width="26" height="23" viewBox="0 0 26 23" fill="none" xmlns="http://www.w3.org/2000/svg">
<path d="M8.87765 1.9626C8.38942 2.38979 8.41571 3.08097 8.70489 3.63085C9.00695 4.20619 9.10043 4.84867 8.97275 5.47188C8.84507 6.09509 8.50235 6.66915 7.99069 7.11686C7.47903 7.56456 6.82297 7.86444 6.11072 7.97616C5.39848 8.08788 4.66422 8.00608 4.00668 7.74178C3.37825 7.48984 2.58833 7.46575 2.10011 7.89294L1.36653 8.53483C1.13184 8.74024 1 9.0188 1 9.30926C1 9.59971 1.13184 9.87827 1.36653 10.0837L14.6186 21.6793C14.8534 21.8846 15.1718 22 15.5037 22C15.8357 22 16.154 21.8846 16.3888 21.6793L17.1224 21.0374C17.6106 20.6102 17.5843 19.919 17.2951 19.3692C16.993 18.7938 16.8996 18.1513 17.0273 17.5281C17.1549 16.9049 17.4976 16.3308 18.0093 15.8831C18.521 15.4354 19.177 15.1356 19.8893 15.0238C20.6015 14.9121 21.3358 14.9939 21.9933 15.2582C22.6217 15.5102 23.4117 15.5343 23.8999 15.1071L24.6335 14.4652C24.8682 14.2598 25 13.9812 25 13.6907C25 13.4003 24.8682 13.1217 24.6335 12.9163L11.3814 1.32071C11.1466 1.11536 10.8282 1 10.4963 1C10.1643 1 9.84599 1.11536 9.61123 1.32071L8.87765 1.9626V1.9626Z" stroke="#503535" stroke-width="2" stroke-linecap="round" stroke-linejoin="round"/>
</svg>
