<svg width="22" height="23" viewBox="0 0 22 23" fill="none" xmlns="http://www.w3.org/2000/svg">
<path d="M8.88462 3.69643V4.10714H13.1154V3.69643C13.1154 3.15179 12.8925 2.62945 12.4958 2.24433C12.0991 1.85922 11.561 1.64286 11 1.64286C10.439 1.64286 9.90091 1.85922 9.5042 2.24433C9.10749 2.62945 8.88462 3.15179 8.88462 3.69643ZM7.19231 4.10714V3.69643C7.19231 2.71607 7.59347 1.77587 8.30756 1.08266C9.02164 0.389444 9.99014 0 11 0C12.0099 0 12.9784 0.389444 13.6924 1.08266C14.4065 1.77587 14.8077 2.71607 14.8077 3.69643V4.10714H21.1538C21.3783 4.10714 21.5935 4.19369 21.7522 4.34773C21.9109 4.50178 22 4.71072 22 4.92857C22 5.14643 21.9109 5.35536 21.7522 5.50941C21.5935 5.66346 21.3783 5.75 21.1538 5.75H19.8778L18.2769 19.3594C18.1589 20.3617 17.665 21.2868 16.8894 21.9582C16.1138 22.6296 15.1107 23.0005 14.0715 23H7.92846C6.88927 23.0005 5.88624 22.6296 5.11064 21.9582C4.33504 21.2868 3.84113 20.3617 3.72308 19.3594L2.12215 5.75H0.846154C0.62174 5.75 0.406517 5.66346 0.247833 5.50941C0.0891481 5.35536 0 5.14643 0 4.92857C0 4.71072 0.0891481 4.50178 0.247833 4.34773C0.406517 4.19369 0.62174 4.10714 0.846154 4.10714H7.19231ZM5.40523 19.1721C5.47587 19.7734 5.77191 20.3283 6.23693 20.7313C6.70195 21.1342 7.30344 21.357 7.92677 21.3571H14.0724C14.6957 21.357 15.2972 21.1342 15.7622 20.7313C16.2272 20.3283 16.5233 19.7734 16.5939 19.1721L18.1754 5.75H3.82546L5.40523 19.1721ZM8.46154 8.625C8.68595 8.625 8.90117 8.71154 9.05986 8.86559C9.21854 9.01964 9.30769 9.22857 9.30769 9.44643V17.6607C9.30769 17.8786 9.21854 18.0875 9.05986 18.2416C8.90117 18.3956 8.68595 18.4821 8.46154 18.4821C8.23712 18.4821 8.0219 18.3956 7.86322 18.2416C7.70453 18.0875 7.61538 17.8786 7.61538 17.6607V9.44643C7.61538 9.22857 7.70453 9.01964 7.86322 8.86559C8.0219 8.71154 8.23712 8.625 8.46154 8.625ZM14.3846 9.44643C14.3846 9.22857 14.2955 9.01964 14.1368 8.86559C13.9781 8.71154 13.7629 8.625 13.5385 8.625C13.314 8.625 13.0988 8.71154 12.9401 8.86559C12.7815 9.01964 12.6923 9.22857 12.6923 9.44643V17.6607C12.6923 17.8786 12.7815 18.0875 12.9401 18.2416C13.0988 18.3956 13.314 18.4821 13.5385 18.4821C13.7629 18.4821 13.9781 18.3956 14.1368 18.2416C14.2955 18.0875 14.3846 17.8786 14.3846 17.6607V9.44643Z" fill="black"/>
</svg>
