<svg width="23" height="21" viewBox="0 0 23 21" fill="none" xmlns="http://www.w3.org/2000/svg">
<path d="M15.5833 19.75V17.6667C15.5833 16.5616 15.1443 15.5018 14.3629 14.7204C13.5815 13.939 12.5217 13.5 11.4167 13.5H5.16667C4.0616 13.5 3.00179 13.939 2.22039 14.7204C1.43899 15.5018 1 16.5616 1 17.6667V19.75" stroke="#503535" stroke-width="2" stroke-linecap="round" stroke-linejoin="round"/>
<path d="M8.29167 9.33333C10.5929 9.33333 12.4583 7.46785 12.4583 5.16667C12.4583 2.86548 10.5929 1 8.29167 1C5.99048 1 4.125 2.86548 4.125 5.16667C4.125 7.46785 5.99048 9.33333 8.29167 9.33333Z" stroke="#503535" stroke-width="2" stroke-linecap="round" stroke-linejoin="round"/>
<path d="M21.8333 19.75V17.6667C21.8326 16.7435 21.5253 15.8466 20.9597 15.117C20.3941 14.3874 19.6022 13.8662 18.7083 13.6354M15.5833 1.13542C16.4796 1.3649 17.274 1.88615 17.8413 2.61699C18.4086 3.34784 18.7165 4.2467 18.7165 5.17188C18.7165 6.09706 18.4086 6.99592 17.8413 7.72676C17.274 8.45761 16.4796 8.97886 15.5833 9.20834" stroke="#503535" stroke-width="2" stroke-linecap="round" stroke-linejoin="round"/>
</svg>
