<svg width="26" height="21" viewBox="0 0 26 21" fill="none" xmlns="http://www.w3.org/2000/svg">
<path d="M14.7083 0.375C11.8241 0.375 9.05799 1.44174 7.01853 3.34054C4.97907 5.23935 3.83331 7.81468 3.83331 10.5H0.208313L4.90873 14.8763L4.99331 15.0338L9.87498 10.5H6.24998C6.24998 6.14625 10.0321 2.625 14.7083 2.625C19.3846 2.625 23.1666 6.14625 23.1666 10.5C23.1666 14.8538 19.3846 18.375 14.7083 18.375C12.3762 18.375 10.2616 17.4862 8.73915 16.0575L7.02331 17.655C8.03036 18.5978 9.2279 19.3456 10.5469 19.8553C11.8659 20.3651 13.2802 20.6267 14.7083 20.625C17.5925 20.625 20.3586 19.5583 22.3981 17.6595C24.4376 15.7606 25.5833 13.1853 25.5833 10.5C25.5833 7.81468 24.4376 5.23935 22.3981 3.34054C20.3586 1.44174 17.5925 0.375 14.7083 0.375ZM13.5 6V11.625L18.6354 14.46L19.5658 13.02L15.3125 10.6687V6H13.5Z" fill="#1C0101"/>
</svg>
