<svg width="21" height="21" viewBox="0 0 21 21" fill="none" xmlns="http://www.w3.org/2000/svg">
<path d="M6.94403 20.99C6.43172 20.987 5.93427 20.8175 5.5267 20.5072L3.35348 18.891C2.85196 18.5001 2.5192 17.9321 2.42353 17.3036C2.32786 16.6752 2.47654 16.0339 2.83904 15.5116C3.03084 15.2285 3.15273 14.904 3.19471 14.5646C3.23668 14.2253 3.19755 13.8808 3.08051 13.5595L3.01752 13.3916C2.93603 13.1008 2.78708 12.8333 2.58277 12.6108C2.37847 12.3884 2.12456 12.2172 1.84166 12.1112H1.67369C1.06043 11.9051 0.553275 11.4654 0.262356 10.8877C-0.0285631 10.31 -0.0797613 9.64091 0.119879 9.0257L0.980772 6.297C1.06002 5.98085 1.20592 5.68528 1.40871 5.43007C1.6115 5.17486 1.8665 4.96591 2.15663 4.8172C2.42681 4.67804 2.72243 4.59513 3.0256 4.57348C3.32877 4.55183 3.63318 4.5919 3.9204 4.69126C4.23314 4.79648 4.56686 4.82375 4.89254 4.77071C5.21822 4.71767 5.52601 4.58592 5.78917 4.38691L5.92565 4.28196C6.16386 4.09195 6.35638 3.85093 6.48903 3.57666C6.62167 3.30239 6.69105 3.00186 6.69206 2.69722V2.44533C6.68924 1.80318 6.9403 1.18591 7.39059 0.727915C7.84088 0.269923 8.45392 0.00829763 9.09626 0H11.7734C12.0859 0.0008419 12.3952 0.0633942 12.6835 0.184065C12.9718 0.304735 13.2333 0.481146 13.4532 0.703165C13.9155 1.17312 14.1722 1.80727 14.1671 2.46632V2.76019C14.1618 3.04959 14.2246 3.33619 14.3504 3.59688C14.4762 3.85757 14.6616 4.08505 14.8915 4.26097L15.007 4.34493C15.2427 4.52156 15.5175 4.63862 15.8082 4.68614C16.0988 4.73365 16.3967 4.7102 16.6763 4.6178L17.0333 4.50236C17.3357 4.40214 17.6552 4.36384 17.9728 4.38974C18.2903 4.41564 18.5994 4.50521 18.8816 4.65311C19.1638 4.801 19.4133 5.0042 19.6152 5.25057C19.8171 5.49694 19.9673 5.78144 20.0569 6.0871L20.8863 8.73184C21.0782 9.34306 21.0257 10.0048 20.7399 10.5782C20.4541 11.1516 19.9572 11.592 19.3535 11.8069L19.1435 11.8803C18.8347 11.9814 18.5554 12.1568 18.3302 12.391C18.1051 12.6253 17.9409 12.9112 17.8522 13.2237C17.7686 13.5142 17.7488 13.8193 17.7941 14.1182C17.8394 14.4171 17.9487 14.7026 18.1146 14.9554L18.3876 15.3542C18.7496 15.8794 18.8969 16.5231 18.7993 17.1534C18.7017 17.7837 18.3666 18.3528 17.8627 18.7441L15.7524 20.3708C15.4975 20.5657 15.2053 20.7064 14.894 20.7842C14.5826 20.8619 14.2586 20.8752 13.9419 20.8231C13.6252 20.771 13.3225 20.6546 13.0525 20.4812C12.7825 20.3077 12.5509 20.0809 12.3718 19.8146L12.2459 19.6361C12.0739 19.3778 11.8393 19.1673 11.5639 19.0241C11.2885 18.881 10.9814 18.8099 10.6711 18.8175C10.375 18.8252 10.0848 18.9023 9.82405 19.0427C9.56326 19.1831 9.33914 19.3828 9.16975 19.6257L8.92828 19.972C8.74922 20.2402 8.51711 20.4688 8.24627 20.6439C7.97543 20.819 7.67159 20.9368 7.35348 20.99C7.21732 21.0033 7.08018 21.0033 6.94403 20.99ZM2.52408 10.0962C3.11693 10.3075 3.65188 10.655 4.08586 11.1107C4.51985 11.5664 4.84076 12.1176 5.02277 12.7199V12.8459C5.24947 13.472 5.32391 14.1431 5.23993 14.8037C5.15596 15.4643 4.91599 16.0955 4.53983 16.6451C4.47343 16.7184 4.43666 16.8138 4.43666 16.9127C4.43666 17.0116 4.47343 17.107 4.53983 17.1803L6.79705 18.891C6.82649 18.9141 6.86055 18.9307 6.89693 18.9396C6.93331 18.9484 6.97117 18.9494 7.00796 18.9425C7.04476 18.9355 7.07964 18.9208 7.11026 18.8992C7.14088 18.8777 7.16653 18.8498 7.1855 18.8175L7.42697 18.4712C7.79115 17.9452 8.27751 17.5152 8.84435 17.2183C9.41119 16.9213 10.0416 16.7662 10.6816 16.7662C11.3215 16.7662 11.9519 16.9213 12.5188 17.2183C13.0856 17.5152 13.572 17.9452 13.9362 18.4712L14.0621 18.6601C14.1073 18.7241 14.1746 18.769 14.2511 18.786C14.2862 18.7912 14.3219 18.7892 14.3562 18.7802C14.3905 18.7712 14.4226 18.7553 14.4506 18.7336L16.6133 17.0964C16.689 17.0363 16.7388 16.9495 16.7525 16.8539C16.7662 16.7582 16.7427 16.661 16.6868 16.5821L16.4138 16.1833C16.0582 15.6648 15.8235 15.0732 15.7272 14.4519C15.6309 13.8307 15.6754 13.1957 15.8574 12.594C16.0419 11.9615 16.3757 11.3826 16.8306 10.906C17.2855 10.4293 17.8483 10.0688 18.4716 9.8548L18.6816 9.78134C18.7691 9.7463 18.8392 9.67807 18.8765 9.59156C18.9139 9.50504 18.9155 9.40726 18.881 9.31956L18.0621 6.70631C18.0425 6.66058 18.0137 6.61933 17.9776 6.58505C17.9415 6.55077 17.8989 6.52418 17.8522 6.5069C17.8213 6.49123 17.7871 6.48306 17.7524 6.48306C17.7178 6.48306 17.6836 6.49123 17.6527 6.5069L17.2957 6.62235C16.6919 6.82156 16.0487 6.8712 15.4214 6.767C14.7942 6.6628 14.2016 6.40787 13.6947 6.02413L13.6527 5.92968C13.1663 5.56143 12.7719 5.08547 12.5004 4.53918C12.229 3.99289 12.088 3.39114 12.0884 2.78118V2.45583C12.0903 2.35467 12.0526 2.25677 11.9834 2.18296C11.923 2.12839 11.8443 2.09844 11.7629 2.099H9.09626C9.05349 2.10167 9.01167 2.11276 8.97319 2.13162C8.93472 2.15049 8.90035 2.17677 8.87206 2.20895C8.84377 2.24113 8.82212 2.27857 8.80835 2.31914C8.79457 2.35971 8.78895 2.40259 8.7918 2.44533V2.70771C8.79186 3.3343 8.64801 3.95254 8.37134 4.51479C8.09467 5.07704 7.69256 5.56828 7.196 5.95066L7.05951 6.05561C6.5238 6.46335 5.89597 6.7331 5.23137 6.84108C4.56677 6.94906 3.88581 6.89197 3.24849 6.67482C3.2008 6.65882 3.14919 6.65882 3.10151 6.67482C3.04226 6.7108 2.99763 6.76656 2.97552 6.83225L2.10413 9.57144C2.07376 9.66473 2.08087 9.76618 2.12398 9.85432C2.16709 9.94246 2.2428 10.0104 2.3351 10.0437L2.52408 10.0962Z" fill="black"/>
<path d="M10.5031 14.1682C9.77634 14.1682 9.0659 13.9528 8.46163 13.5492C7.85735 13.1456 7.38638 12.5719 7.10826 11.9007C6.83014 11.2295 6.75738 10.4909 6.89916 9.77838C7.04094 9.06584 7.39091 8.41133 7.9048 7.89762C8.4187 7.38391 9.07344 7.03406 9.78623 6.89233C10.499 6.7506 11.2378 6.82334 11.9093 7.10136C12.5807 7.37938 13.1546 7.85019 13.5584 8.45425C13.9621 9.05831 14.1776 9.7685 14.1776 10.495C14.1776 11.4692 13.7905 12.4035 13.1014 13.0924C12.4123 13.7812 11.4776 14.1682 10.5031 14.1682ZM10.5031 8.92075C10.1916 8.92075 9.88716 9.01308 9.62818 9.18606C9.36921 9.35904 9.16736 9.6049 9.04817 9.89256C8.92897 10.1802 8.89779 10.4967 8.95855 10.8021C9.01932 11.1075 9.1693 11.388 9.38954 11.6082C9.60978 11.8283 9.89038 11.9783 10.1959 12.039C10.5013 12.0997 10.818 12.0686 11.1057 11.9494C11.3935 11.8303 11.6395 11.6285 11.8125 11.3696C11.9855 11.1107 12.0779 10.8064 12.0779 10.495C12.0779 10.0775 11.912 9.67706 11.6166 9.38184C11.3213 9.08661 10.9208 8.92075 10.5031 8.92075Z" fill="black"/>
</svg>
