<svg width="24" height="24" viewBox="0 0 24 24" fill="none" xmlns="http://www.w3.org/2000/svg">
<path d="M8.707 3.293C8.317 3.683 8.338 4.314 8.569 4.816C8.81029 5.34125 8.88497 5.92779 8.78297 6.49674C8.68098 7.06569 8.40721 7.58977 7.99849 7.99849C7.58977 8.40721 7.06569 8.68098 6.49674 8.78297C5.92779 8.88496 5.34125 8.81029 4.816 8.569C4.314 8.339 3.683 8.317 3.293 8.707L2.707 9.293C2.51953 9.48053 2.41422 9.73484 2.41422 10C2.41422 10.2652 2.51953 10.5195 2.707 10.707L13.293 21.293C13.4805 21.4805 13.7348 21.5858 14 21.5858C14.2652 21.5858 14.5195 21.4805 14.707 21.293L15.293 20.707C15.683 20.317 15.662 19.686 15.431 19.184C15.1897 18.6588 15.115 18.0722 15.217 17.5033C15.319 16.9343 15.5928 16.4102 16.0015 16.0015C16.4102 15.5928 16.9343 15.319 17.5033 15.217C18.0722 15.115 18.6588 15.1897 19.184 15.431C19.686 15.661 20.317 15.683 20.707 15.293L21.293 14.707C21.4805 14.5195 21.5858 14.2652 21.5858 14C21.5858 13.7348 21.4805 13.4805 21.293 13.293L10.707 2.707C10.5195 2.51953 10.2652 2.41421 10 2.41421C9.73484 2.41421 9.48053 2.51953 9.293 2.707L8.707 3.293V3.293Z" stroke="#503535" stroke-width="2" stroke-linecap="round" stroke-linejoin="round"/>
</svg>
